PathFileType	4	(X/Y/Z)	C:/Users/beibeiliu/ov580/test_trc/User2\sequence.3_training_dense_left.trc
DataRate	CameraRate	NumFrames	NumMarkers	Units	OrigDataRate	OrigDataStartFrame	OrigNumFrames
120	120	20	19	mm	120	172	343
Frame#	Time	ThumbCMC			ThumbMCP			ThumbIP			ThumbTip			IndexMCP			IndexPIP			IndexTip			MiddleMCP			MiddlePIP			MiddleTip			RingMCP			RingPIP			RingTip			PinkyMCP			PinkyPIP			PinkyTip			BackHand1			BackHand2			BackHand3	
		X0	Y0	Z0	X1	Y1	Z1	X2	Y2	Z2	X3	Y3	Z3	X4	Y4	Z4	X5	Y5	Z5	X6	Y6	Z6	X7	Y7	Z7	X8	Y8	Z8	X9	Y9	Z9	X10	Y10	Z10	X11	Y11	Z11	X12	Y12	Z12	X13	Y13	Z13	X14	Y14	Z14	X15	Y15	Z15	X16	Y16	Z16	X17	Y17	Z17	X18	Y18	Z18	
171	1.425	-171.345	21.4612	89.8811	-192.085	1.69962	64.5975	-219.944	-2.86339	41.3357	-243.902	2.14834	36.8209	-210.695	38.8654	21.7936	-223.341	13.1295	25.1631	-207.246	10.0921	58.6115	-234.853	45.4144	30.4081	-240.741	12.221	33.7273	-218.093	13.9589	70.2104	-250.669	41.6408	43.8093	-254.708	11.6309	48.2112	-229.512	11.8642	79.6835	-262.819	42.0681	65.6449	-255.519	8.5425	69.8394	-234.651	16.0777	90.9342	-225.776	74.2871	92.3327	-206.264	73.4934	127.821	-180.606	63.7899	94.8192	
172	1.43333	-173.486	22.7115	89.7	-189.501	-0.718517	61.5969	-218.244	-3.71919	38.611	-246.159	-0.888148	31.0347	-209.602	41.5849	23.798	-223.923	11.8057	23.658	-206.88	7.98366	54.8461	-236.417	45.6038	31.9528	-240.071	10.1103	33.5176	-218.2	14.8655	70.1153	-252.718	38.0875	40.024	-252.533	8.45243	49.1424	-233.414	12.3446	78.3782	-267.049	39.5715	64.2394	-256.214	7.1724	69.9127	-234.587	17.7794	94.7434	-224.486	73.2396	89.6835	-212.423	73.9704	124.009	-187.923	66.5102	96.6416	
173	1.44167	-173.493	25.3087	91.5234	-187.077	4.4905	62.3784	-210.015	-4.56443	33.2727	-236.148	1.56187	28.4584	-204.346	43.469	24.0989	-214.676	10.668	24.0756	-204.693	12.157	56.7178	-229.009	45.8973	28.6153	-232.974	9.56382	32.2638	-212.264	14.2417	67.5246	-245.005	40.8209	39.2405	-249.882	9.59777	44.9928	-224.582	13.0383	73.9342	-260.118	38.7988	55.8683	-250.621	7.9028	64.398	-233.496	17.6504	91.3017	-220.852	74.5552	90.6525	-212.686	71.6148	120.793	-182.718	66.6213	93.5812	
174	1.45	-167.203	25.6999	94.3526	-175.842	8.30056	63.5067	-193.9	-1.04732	30.9741	-219.509	7.06508	25.0588	-185.371	47.2449	24.3335	-200.785	16.8858	21.4991	-190.473	15.3631	56.5881	-214.348	48.5853	25.5094	-219.764	12.6359	29.5904	-207.229	14.1676	64.6516	-235.932	41.7491	33.8407	-230.957	11.3456	39.5167	-217.025	16.2306	71.7898	-249.601	39.9746	49.4714	-239.607	9.80342	56.0995	-226.31	18.5111	85.2506	-219.157	76.6723	88.053	-211.621	72.6334	122.666	-178.371	66.8962	99.4137	
175	1.45833	-158.132	26.7004	102.772	-159.176	9.15647	65.2426	-175.607	4.865	34.3893	-198.427	8.56728	16.3272	-171.518	52.242	27.7985	-176.481	22.6198	17.4581	-173.509	15.9386	54.9319	-196.367	52.5547	24.2216	-202.119	18.3774	23.3794	-190.64	18.5587	65.5164	-215.975	44.8564	30.7283	-212.243	14.3029	35.7258	-203.02	17.0561	67.7007	-234.698	41.2113	42.7047	-225.477	11.6571	51.1372	-213.283	18.8225	81.5308	-208.433	74.3857	92.043	-205.646	70.3966	122.637	-171.844	67.3589	105.783	
176	1.46667	-148.13	29.7339	104.814	-144.532	13.0413	71.1452	-154.429	8.72469	37.9693	-175.083	14.247	17.9194	-151.809	58.3218	34.4249	-159.078	28.0215	25.1385	-158.408	20.5238	57.5954	-175.572	57.3195	27.0923	-176.941	23.7415	23.9774	-172.345	21.4665	67.3251	-196.984	48.5436	30.6299	-196.368	17.7418	33.5331	-186.423	23.1766	71.2052	-211.637	44.4196	40.3679	-207.326	12.3268	51.5201	-200.807	22.2494	80.9624	-200.571	76.6288	91.4617	-202.492	70.8792	123.545	-163.192	70.806	109.025	
177	1.475	-135.72	31.339	114.928	-129.519	16.7248	78.7748	-134.61	14.027	46.2843	-155.994	22.9922	23.441	-129.761	62.8752	40.5738	-136.491	34.1017	30.3096	-140.304	25.1787	66.7326	-155.568	63.5601	35.7048	-157.389	26.349	31.1352	-159.828	26.0423	69.5192	-173.318	52.1923	32.6573	-175.211	22.3372	35.2293	-172.248	27.0774	74.6681	-198.581	49.0503	42.3352	-189.995	16.2758	49.254	-187.96	26.4845	82.4751	-189.468	79.5547	90.6778	-199.345	69.3724	127.03	-158.52	72.7827	118.379	
178	1.48333	-128.775	32.7357	122.437	-121.876	23.0846	88.0751	-117.983	19.1032	50.114	-136.064	25.4748	27.7633	-115.393	68.2431	54.6811	-120.097	40.2308	37.2834	-127.123	26.8254	74.1806	-134.694	66.1828	39.8676	-137.488	30.8869	37.7832	-145.128	29.5071	75.5638	-157.378	57.3913	38.4659	-160.331	24.414	40.6349	-158.863	29.2015	77.2333	-181.299	49.3816	41.4168	-172.054	21.2644	49.8992	-173.112	28.9156	82.7522	-182.032	79.697	94.3875	-188.763	71.9726	127.747	-150.033	73.8441	125.62	
179	1.49167	-125.568	32.946	129.667	-112.43	21.9298	97.061	-110.839	23.4726	58.2476	-124.636	28.6675	36.7086	-105.517	71.358	58.6743	-102.559	45.6062	44.4014	-121.281	29.7673	73.2323	-124.694	71.4572	49.6395	-124.785	37.7623	39.7438	-138.704	31.8215	77.9341	-150.768	60.712	42.3811	-145.308	30.3608	42.077	-152	32.0564	80.1345	-169.765	51.3404	43.7227	-160.206	22.1922	55.0789	-166.64	29.7282	85.0161	-175.846	80.0171	100.105	-185.337	68.8735	132.027	-148.402	73.3063	131.428	
180	1.5	-123.083	35.4197	130.558	-108.296	23.7641	99.17	-102.712	27.0246	57.6743	-121.162	36.1704	36.3182	-103.659	76.629	66.7661	-101.059	48.4356	48.5038	-112.547	31.0884	77.9296	-117.078	72.9982	51.006	-118.75	38.375	44.9066	-132.88	34.3366	82.1693	-142.052	62.3277	41.7492	-136.758	34.1031	43.5278	-147.613	34.058	81.5546	-159.811	54.94	47.7094	-154.304	25.1196	55.5035	-161.542	30.2101	86.6383	-166.445	83.3154	102.76	-183.144	74.6894	130.272	-146.921	73.2911	131.858	
181	1.50833	-123.893	36.6993	128.254	-106.051	26.3811	93.4399	-102.408	26.9959	59.3306	-119.632	38.1115	34.4276	-99.3579	77.5852	63.3389	-99.1698	53.1576	47.1579	-111.675	32.8618	78.9823	-120.474	76.3988	51.5374	-117.018	43.6253	42.3036	-134.292	36.659	82.371	-145.274	66.3632	45.4681	-139.442	33.0426	46.5149	-146.724	34.1183	79.4123	-166.344	57.4243	47.9103	-153.144	26.9204	57.7138	-162.668	32.1199	88.5292	-167.446	83.8062	103.384	-184.701	70.6638	132.99	-145.172	76.6106	129.096	
182	1.51667	-127.092	35.1249	126.551	-111.332	26.1209	88.9344	-109.598	27.6141	51.5096	-126.271	35.7535	30.2273	-106.798	79.1462	61.0123	-105.087	53.354	41.4038	-118.722	33.1047	72.7053	-126.612	76.9879	47.4468	-128.329	40.4763	39.9527	-139.3	35.1486	74.8942	-146.355	63.8636	41.7898	-146.297	33.6824	43.213	-154.598	35.0715	80.4847	-170.181	55.8005	45.3441	-165.277	24.695	52.382	-168.608	32.5962	86.5303	-174.305	82.1472	101.088	-185.619	70.36	133.829	-147.394	74.5667	129.148	
183	1.525	-131.067	37.3496	118.064	-119.566	25.0707	80.5025	-122.339	25.8112	44.5013	-146.161	35.5317	27.4464	-122.077	77.7423	48.4983	-119.849	46.4696	34.2322	-127.822	31.8948	64.0576	-144.723	76.6187	41.598	-143.512	38.7611	33.348	-148.548	35.3195	72.7758	-164.444	63.3482	38.3927	-163.376	30.7725	38.6099	-161.998	30.8602	73.9128	-186.037	55.5838	44.8808	-173.802	25.0086	52.1363	-173.377	26.8125	83.2221	-178.944	80.8691	102.111	-191.331	71.4103	132.265	-152.328	74.4065	125.506	
184	1.53333	-134.782	37.9743	106.812	-131.556	22.8557	71.648	-142.532	22.2738	37.8785	-162.745	27.3852	21.5132	-140.148	74.0941	39.2776	-141.376	46.6978	23.5844	-147.415	30.496	55.6075	-163.862	69.6535	30.8122	-161.047	36.9703	24.9671	-161.042	29.7595	65.4689	-184.98	58.0441	32.6668	-180.274	28.5553	35.0179	-176.318	27.4015	73.3532	-201.933	51.284	43.872	-190.048	21.3553	50.8694	-189.321	24.4003	82.508	-189.225	81.5879	97.9603	-191.868	69.4596	131.496	-155.94	76.0109	115.843	
185	1.54167	-142.637	35.6198	99.8259	-145.45	20.4562	64.4212	-160.725	17.0857	30.9637	-186.339	22.5297	21.0183	-159.8	67.1822	27.6926	-165.683	39.813	17.1145	-164.296	27.0099	50.6432	-180.105	64.8237	26.6414	-185.958	30.4307	23.6896	-178.864	24.1696	62.2607	-203.05	55.5175	36.1289	-199.565	24.2216	32.8155	-189.491	22.2316	69.7808	-217.677	50.6987	49.876	-210.054	16.0782	55.0985	-200.276	22.3218	82.3651	-196.909	80.7584	95.8163	-192.841	72.506	127.027	-160.717	75.4143	107.532	
186	1.55	-146.149	33.1313	94.7874	-154.875	15.0007	61.1459	-174.617	7.14118	31.0529	-202.694	13.4942	25.2405	-176.195	60.1671	26.431	-185.532	28.5389	16.7184	-178.382	21.0232	47.4701	-200.026	57.7144	29.0625	-203.926	19.2146	25.2885	-195.06	11.3594	62.456	-217.799	46.2072	34.7868	-219.879	15.6005	39.9641	-204.994	15.8596	75.3126	-236.214	42.4578	52.9953	-224.75	13.3282	58.2554	-207.654	20.6282	87.0733	-207.668	78.4767	96.4233	-196.019	76.3314	126.209	-164.323	72.5504	103.548	
187	1.55833	-154.432	33.4745	96.1482	-158.938	16.4288	63.3209	-189.948	11.0795	39.1454	-218.632	19.3808	43.0062	-191.133	50.8281	22.5484	-199.369	23.1343	13.0785	-185.865	16.6026	50.0198	-209.985	44.4082	26.7253	-221.399	9.27036	27.2044	-210.428	-6.32949	60.8345	-228.928	38.2065	38.4672	-229.631	7.99106	44.2582	-214.715	4.92375	75.7154	-246.312	36.1684	59.6151	-236.638	5.35899	68.8541	-217.356	15.6539	93.8822	-208.858	74.5313	89.9373	-200.996	75.211	124.65	-174.386	72.0229	96.9747	
188	1.56667	-156.55	32.8033	94.7757	-166.388	14.4807	61.1302	-202.57	10.9941	46.97	-228.233	19.9349	61.9486	-200.58	41.1689	25.0504	-208.436	10.7955	20.0227	-192.179	10.538	54.9946	-222.582	38.2104	34.8084	-227.733	-0.286719	32.8954	-211.483	-17.7908	68.9697	-240.61	29.9168	46.4796	-239.243	-1.92922	54.1541	-216.507	-1.15246	83.6583	-250.238	26.525	65.2599	-242.4	-1.01426	77.2416	-222.964	9.53039	101.091	-219.521	73.4402	91.8639	-201.461	75.3928	127.083	-179.212	70.4644	93.484	
189	1.575	-159.425	33.328	94.4081	-169.973	13.1245	66.9762	-203.754	1.12202	53.4795	-232.916	10.3405	67.6089	-204.109	32.7104	28.5601	-210.546	-1.12718	28.545	-191.401	3.45329	58.9631	-226.302	27.2909	37.2859	-231.807	-10.4416	40.8172	-214.515	-24.0502	76.9569	-241.17	17.6848	50.6689	-238.513	-13.298	65.6709	-213.95	-5.77938	92.9102	-253.968	16.4476	72.3551	-238.627	-7.61261	84.1779	-218.74	7.70927	106.705	-219.838	68.6098	95.5241	-205.981	75.6916	127.035	-181.913	66.755	94.1054	
190	1.58333	-158.51	35.686	94.3772	-166.586	7.49929	68.4825	-196.57	-11.3192	55.5284	-225.239	-8.6802	65.05	-207.213	23.7134	33.5215	-209.875	-7.6799	36.6997	-188.998	4.38168	66.546	-227.492	15.802	40.1453	-222.27	-22.6004	46.7802	-207.75	-26.3323	83.1853	-243.865	6.69599	60.9653	-229.618	-21.3466	70.7184	-211.187	-7.15811	100.742	-250.817	7.4667	80.4576	-230.325	-17.3308	92.4468	-212.284	4.64806	112.595	-231.973	57.3533	95.6296	-216.639	69.6334	125.094	-187.457	67.2591	96.4852	
